<svg width="142" height="128" viewBox="0 0 142 128" fill="none" xmlns="http://www.w3.org/2000/svg">
<path opacity="0.8" d="M71.7927 128C110.567 128 142 99.6648 142 64.7116C142 29.7584 110.567 1.42322 71.7927 1.42322C33.0182 1.42322 1.58533 29.7584 1.58533 64.7116C1.58533 99.6648 33.0182 128 71.7927 128Z" fill="#29A9B3"/>
<path d="M138.346 41.4955L121.417 30.7464L110.706 23.9525L96.5719 14.9926L91.8515 12.0059L87.049 8.95246L74.7366 1.15732C73.5432 0.404051 72.1216 0 70.6646 0C69.2077 0 67.7861 0.404051 66.5926 1.15732L3.0179 41.4955C1.87071 42.2184 0.987512 43.2321 0.4803 44.4081C-0.0269122 45.584 -0.135287 46.8693 0.168919 48.1009C0.473125 49.3325 1.17621 50.4549 2.18901 51.3258C3.2018 52.1967 4.47869 52.7768 5.85774 52.9926C6.25808 53.0617 6.66498 53.095 7.07257 53.0922C8.52813 53.0982 9.9485 52.689 11.1304 51.9231L14.1391 50.0316V121.053C14.1428 122.742 14.8892 124.361 16.2146 125.555C17.54 126.749 19.3365 127.42 21.2103 127.423H120.147C122.02 127.419 123.816 126.747 125.14 125.553C126.464 124.359 127.21 122.741 127.214 121.053V50.0074L130.223 51.9231C131.757 52.8942 133.656 53.2762 135.502 52.9851C137.348 52.694 138.991 51.7536 140.068 50.3708C141.145 48.988 141.569 47.2761 141.246 45.6116C140.923 43.9472 139.88 42.4666 138.346 41.4955ZM122.493 121.023C122.494 121.3 122.433 121.576 122.315 121.832C122.197 122.089 122.025 122.322 121.807 122.518C121.589 122.715 121.33 122.871 121.045 122.977C120.761 123.083 120.456 123.138 120.147 123.137H21.2103C20.9021 123.138 20.597 123.083 20.3122 122.977C20.0275 122.871 19.7688 122.715 19.5509 122.518C19.333 122.322 19.1602 122.089 19.0424 121.832C18.9246 121.576 18.864 121.3 18.8642 121.023V47.0208L70.6788 14.1478L122.493 47.0208V121.023ZM136.683 46.8914C136.644 47.2687 136.496 47.6302 136.254 47.94C136.011 48.2499 135.684 48.4973 135.303 48.6577C134.922 48.8122 134.502 48.8729 134.086 48.8337C133.67 48.7945 133.274 48.6567 132.936 48.4345L72.0309 9.81859C71.6365 9.56354 71.1634 9.42636 70.678 9.42636C70.1927 9.42636 69.7195 9.56354 69.3252 9.81859L8.42938 48.4387C7.91627 48.7107 7.30829 48.7984 6.72665 48.6843C6.14501 48.5702 5.63243 48.2627 5.29107 47.8232C4.94972 47.3836 4.80467 46.8442 4.88484 46.3125C4.96501 45.7808 5.26451 45.2958 5.72364 44.9543L69.3252 4.61756C69.7195 4.36251 70.1927 4.22534 70.678 4.22534C71.1634 4.22534 71.6365 4.36251 72.0309 4.61756L135.634 44.9557C135.979 45.1702 136.258 45.4615 136.441 45.8014C136.625 46.1413 136.709 46.5182 136.683 46.8956V46.8914Z" fill="white"/>
<path d="M93.0662 40.3265C84.6952 40.3731 76.6703 43.3437 70.6788 48.6138C64.6974 43.3297 56.666 40.3567 48.2913 40.3265C34.4329 40.3265 23.5563 52.6443 23.5563 68.3441C23.5563 85.2158 35.7045 108.559 69.9404 118.786C70.4236 118.935 70.9482 118.935 71.4314 118.786C105.667 108.559 117.816 85.2215 117.816 68.3441C117.801 52.6443 106.925 40.3265 93.0662 40.3265ZM70.6788 114.557C39.4026 104.928 28.2704 83.7011 28.2704 68.3725C28.2704 55.0336 37.0487 44.5832 48.285 44.5832C52.1747 44.6334 56.0101 45.414 59.5464 46.8752C63.0826 48.3364 66.2422 50.446 68.8234 53.0695C69.0452 53.321 69.326 53.5251 69.6458 53.667C69.9655 53.8089 70.3162 53.8851 70.6725 53.8902C71.0299 53.8906 71.3826 53.8168 71.7033 53.6744C72.0239 53.5321 72.3039 53.3252 72.5215 53.0695C75.1034 50.4451 78.2639 48.3348 81.8014 46.8734C85.3388 45.412 89.1754 44.6315 93.0662 44.5818C104.301 44.5818 113.079 55.0336 113.079 68.3711C113.081 83.7011 101.949 104.928 70.6788 114.557Z" fill="white"/>
<path d="M83.4597 83.6514C80.8928 79.4957 77.6901 74.3188 70.6788 74.3188C63.6676 74.3188 60.4648 79.4943 57.8995 83.65C57.0716 85.1097 56.1017 86.5004 55.0013 87.8057C53.483 89.4375 52.4754 91.405 52.0824 93.5051C51.6894 95.6052 51.9253 97.7618 52.7657 99.7522C53.4674 101.111 54.6059 102.248 56.0334 103.015C57.461 103.783 59.1116 104.146 60.7709 104.057C62.7849 104.017 64.768 103.602 66.5958 102.838C67.8749 102.286 69.2649 101.973 70.682 101.918C72.099 101.973 73.4891 102.286 74.7682 102.838C76.6004 103.59 78.5808 104.005 80.5931 104.057C82.2486 104.149 83.8967 103.79 85.3229 103.027C86.7491 102.263 87.8876 101.131 88.5904 99.7764C89.431 97.786 89.6669 95.6293 89.2739 93.5292C88.8809 91.4291 87.8732 89.4616 86.3548 87.8298C85.2541 86.5157 84.2842 85.1165 83.4566 83.6485L83.4597 83.6514ZM84.3148 97.9603C83.9793 98.5755 83.4414 99.0825 82.7745 99.4121C82.1076 99.7417 81.3442 99.8779 80.5883 99.802C79.1713 99.7474 77.7812 99.4343 76.5021 98.8818C74.6699 98.1299 72.6895 97.7155 70.6773 97.663C68.6633 97.7034 66.6802 98.1183 64.8524 98.8818C63.5733 99.4343 62.1832 99.7474 60.7662 99.802C60.0091 99.8838 59.2426 99.7503 58.5739 99.4201C57.9051 99.0898 57.3676 98.5794 57.0365 97.9603C56.5726 96.7059 56.4741 95.3652 56.7503 94.0667C57.0266 92.7682 57.6684 91.5554 58.6142 90.5448C59.9206 89.036 61.0668 87.4199 62.0378 85.7179C64.7988 81.2635 66.7583 78.5513 70.7056 78.5513C74.653 78.5513 76.6125 81.2635 79.3735 85.7179C80.351 87.4166 81.4968 89.0322 82.7971 90.5448C83.7284 91.5627 84.3566 92.7777 84.6221 94.0752C84.8877 95.3727 84.7819 96.7098 84.3148 97.9603Z" fill="white"/>
<path d="M49.6151 65.0873C50.6358 70.3623 54.9697 74.1894 59.6082 74.1894C60.043 74.1933 60.4772 74.16 60.905 74.0899C62.2366 73.8476 63.4868 73.3275 64.5553 72.5712C65.6238 71.815 66.4809 70.8437 67.058 69.7351C68.2843 67.3739 68.6771 64.7304 68.1833 62.1615C67.6896 59.5927 66.3331 57.2224 64.2971 55.3707C63.3583 54.4775 62.1889 53.8076 60.8932 53.4206C59.5975 53.0336 58.2157 52.9416 56.871 53.1528C55.5263 53.364 54.2605 53.8719 53.1863 54.6311C52.1121 55.3903 51.2631 56.3773 50.7147 57.5041C49.4731 59.8582 49.0867 62.5053 49.6103 65.0688L49.6151 65.0873ZM54.9461 59.4383C55.1983 58.9227 55.5784 58.4661 56.057 58.1037C56.5357 57.7413 57.1001 57.4826 57.707 57.3476C57.8806 57.3265 58.0558 57.3184 58.2308 57.3234C59.3154 57.3796 60.3384 57.7961 61.1022 58.4925C62.3939 59.7122 63.2541 61.2506 63.5735 62.9121C63.8929 64.5736 63.6571 66.2832 62.8961 67.8236C62.6438 68.3392 62.2638 68.7958 61.7851 69.1582C61.3065 69.5206 60.742 69.7793 60.1351 69.9143C57.6234 70.3125 54.9461 67.781 54.2834 64.3676C53.9046 62.7033 54.1372 60.9729 54.9461 59.4383Z" fill="white"/>
<path d="M53.923 78.4004C53.3687 76.3493 51.9378 74.5786 49.9419 73.474C47.946 72.3693 45.5468 72.0202 43.2667 72.5025C42.1721 72.8177 41.1698 73.3502 40.3337 74.0608C39.4976 74.7714 38.849 75.642 38.4355 76.6085C37.5777 78.5938 37.4929 80.7828 38.1951 82.8172C38.8974 84.8516 40.345 86.6109 42.3011 87.8069C43.6061 88.5808 45.1286 89.0036 46.6905 89.0258C47.43 89.0278 48.1655 88.927 48.871 88.7271C49.9656 88.4119 50.9679 87.8794 51.804 87.1688C52.6401 86.4582 53.2887 85.5877 53.7021 84.6212C54.5869 82.6359 54.6652 80.4327 53.923 78.4004ZM49.3475 82.9785C49.2082 83.3766 48.9643 83.7384 48.6366 84.0332C48.3088 84.328 47.9068 84.547 47.4649 84.6716C47.023 84.7962 46.5542 84.8227 46.0985 84.7488C45.6428 84.6749 45.2137 84.5028 44.8476 84.2471C43.8187 83.592 43.0582 82.6492 42.684 81.5649C42.3097 80.4807 42.3426 79.3154 42.7776 78.2497C42.9353 77.8616 43.185 77.5091 43.5093 77.2168C43.8335 76.9245 44.2246 76.6994 44.6551 76.5573C44.9054 76.4877 45.1663 76.4541 45.4283 76.4577C46.3782 76.5629 47.2701 76.9264 47.9851 77.4999C48.7002 78.0733 49.2046 78.8294 49.4311 79.6676C49.8461 80.7438 49.817 81.9187 49.349 82.9771L49.3475 82.9785Z" fill="white"/>
<path d="M90.6918 57.548C90.1138 56.44 89.2564 55.4692 88.1881 54.7131C87.1197 53.9569 85.8701 53.4365 84.5389 53.1932C79.4319 52.3968 74.3533 56.4288 73.2489 62.2015C72.1445 67.9743 75.4024 73.2948 80.5063 74.0969C80.9339 74.1681 81.3683 74.2014 81.8031 74.1964C86.4684 74.1964 90.7755 70.3636 91.7962 65.0943C92.3507 62.5376 91.9628 59.8876 90.6918 57.548ZM87.1862 64.3661C86.5236 67.751 83.8462 70.3138 81.3346 69.9127C78.8229 69.5117 77.2483 66.3117 77.8841 62.8984C78.4916 59.7382 80.866 57.3248 83.212 57.3248C83.3884 57.3167 83.5651 57.3335 83.7358 57.3745C84.3409 57.5132 84.9034 57.7733 85.3815 58.1352C85.8595 58.4972 86.2408 58.9519 86.4968 59.4652C87.288 60.994 87.529 62.7076 87.1862 64.3661Z" fill="white"/>
<path d="M98.0918 72.4785C95.8121 72.0011 93.4155 72.3524 91.421 73.4563C89.4265 74.5602 87.9947 76.3278 87.4355 78.3764C86.7152 80.4131 86.8028 82.6122 87.6832 84.5971C88.1006 85.5615 88.7506 86.4301 89.5862 87.1402C90.4217 87.8503 91.4219 88.3841 92.5144 88.703C93.2208 88.8993 93.9556 89 94.6949 89.0017C96.2582 88.9878 97.7832 88.5643 99.0842 87.7829C101.04 86.5868 102.488 84.8276 103.19 82.7932C103.892 80.7588 103.808 78.5697 102.95 76.5844C102.522 75.6212 101.866 74.7543 101.026 74.0449C100.186 73.3354 99.1842 72.8007 98.0903 72.4785H98.0918ZM98.6709 81.5365C98.3093 82.6256 97.5504 83.5727 96.5172 84.2245C96.1506 84.4809 95.7207 84.6536 95.2642 84.7279C94.8076 84.8022 94.3378 84.7759 93.8949 84.6512C93.4527 84.5283 93.0504 84.3099 92.7232 84.0149C92.396 83.72 92.1537 83.3574 92.0174 82.9587C91.577 81.8955 91.5481 80.7292 91.9353 79.6493C92.68 77.4591 94.8621 76.0411 96.7113 76.5389C97.1466 76.6734 97.5421 76.8958 97.8675 77.1891C98.1929 77.4824 98.4396 77.8389 98.5888 78.2313C99.0292 79.2946 99.0581 80.4608 98.6709 81.5408V81.5365Z" fill="white"/>
</svg>
