<svg width="151" height="131" viewBox="0 0 151 131" fill="none" xmlns="http://www.w3.org/2000/svg">
<path opacity="0.8" d="M75 131C116.421 131 150 101.675 150 65.5C150 29.3253 116.421 0 75 0C33.5786 0 0 29.3253 0 65.5C0 101.675 33.5786 131 75 131Z" fill="#29A9B3"/>
<path d="M56.3661 33.2809C55.6439 35.1686 54.2972 36.827 52.4961 38.0465C50.695 39.266 48.5204 39.9918 46.2471 40.1322C43.9738 40.2727 41.7039 39.8214 39.7241 38.8355C37.7444 37.8496 36.1438 36.3733 35.1245 34.5932C34.1052 32.813 33.713 30.809 33.9975 28.8342C34.282 26.8595 35.2305 25.0027 36.7229 23.4986C38.2154 21.9945 40.1849 20.9105 42.3826 20.3836C44.5803 19.8568 46.9074 19.9107 49.07 20.5386C50.5072 20.9559 51.836 21.6165 52.9807 22.4826C54.1254 23.3486 55.0634 24.4032 55.7411 25.586C56.4189 26.7689 56.823 28.0567 56.9306 29.3761C57.0381 30.6954 56.8469 32.0203 56.3678 33.275L56.3661 33.2809Z" stroke="white" stroke-width="2.706" stroke-linecap="round" stroke-linejoin="round"/>
<path d="M43.4376 59.9286C45.7871 52.9576 39.8798 43.2504 30.9978 43.0016C21.6826 42.6719 17.4017 52.0612 13.5994 57.9371C9.8894 63.6429 6.57283 69.5371 3.66742 75.5882C2.54723 79.0727 3.02266 82.8011 4.99317 85.985C6.96369 89.1689 10.2748 91.5587 14.2264 92.6492L34.9197 98.4028H10.0635C8.17207 98.3686 6.33338 98.9484 4.90335 100.03C3.47333 101.112 2.55369 102.618 2.32247 104.258C2.22243 105.159 2.33897 106.067 2.66463 106.926C2.99029 107.785 3.51788 108.575 4.21356 109.245C4.90924 109.916 5.75766 110.452 6.7044 110.819C7.65115 111.186 8.67532 111.376 9.71124 111.378H38.5315C40.5308 111.377 42.5081 111.014 44.3381 110.311C46.168 109.607 47.8106 108.58 49.1615 107.292C50.5123 106.005 51.5421 104.487 52.1853 102.834C52.8285 101.18 53.0711 99.4284 52.8978 97.689C52.6158 95.3503 51.6101 93.1229 49.9886 91.2455C48.3672 89.3681 46.1911 87.9117 43.6938 87.0323L35.3882 83.2422L38.8062 73.192" stroke="white" stroke-width="2.706" stroke-linecap="round" stroke-linejoin="round"/>
<path d="M37.7255 57.0015L69.1143 73.113C70.5984 73.8856 71.6716 75.1403 72.099 76.6023C72.5263 78.0644 72.2731 79.6148 71.3946 80.9141V80.9141C70.5099 82.2102 69.0733 83.1475 67.3992 83.5207C65.7251 83.894 63.9499 83.6728 62.462 82.9056L33.2559 67.9746" stroke="white" stroke-width="2.706" stroke-linecap="round" stroke-linejoin="round"/>
<path d="M136.498 97.238L137.262 107.584C137.382 108.915 138.072 110.157 139.194 111.063C140.317 111.969 141.789 112.473 143.317 112.474C144.116 112.475 144.908 112.339 145.647 112.073C146.385 111.807 147.057 111.416 147.622 110.923C148.188 110.43 148.637 109.844 148.943 109.2C149.249 108.555 149.407 107.864 149.407 107.166V69.5528C149.407 68.6495 148.996 67.7832 148.264 67.1444C147.533 66.5057 146.541 66.1469 145.507 66.1469C144.645 66.1465 143.807 66.3954 143.124 66.8547C142.442 67.3141 141.952 67.958 141.733 68.6859L138.005 80.4759" stroke="white" stroke-width="2.706" stroke-linecap="round" stroke-linejoin="round"/>
<path d="M133.888 98.8221C130.52 99.1358 127.136 99.2906 123.75 99.2858C120.683 99.2858 117.672 99.1666 114.777 98.9178" stroke="white" stroke-width="2.706" stroke-linecap="round" stroke-linejoin="round"/>
<path d="M112.144 79.7734C115.394 79.4643 121.414 79.295 124.903 79.295C127.982 79.295 132.679 79.454 135.574 79.6939" stroke="white" stroke-width="2.706" stroke-linecap="round" stroke-linejoin="round"/>
<path d="M110.772 79.0557L111.457 71.468C111.605 69.8458 111.281 68.2173 110.515 66.734C109.748 65.2506 108.565 63.9606 107.075 62.9839V62.9839C104.981 61.6108 102.397 60.9311 99.7825 61.0659C97.1684 61.2006 94.6939 62.1411 92.7994 63.7199L86.6191 68.8715L84.2814 69.7282C83.5632 69.9918 82.9188 70.3882 82.3928 70.89C81.8667 71.3919 81.4714 71.9874 81.234 72.6354C80.9966 73.2835 80.9229 73.9688 81.0177 74.6441C81.1126 75.3195 81.3739 75.9688 81.7837 76.5475V76.5475C82.3856 77.4062 83.2209 78.1217 84.2156 78.6307C85.2103 79.1396 86.3334 79.4261 87.4854 79.4649L89.1606 79.5252C91.6716 79.5357 94.0755 80.4142 95.8468 81.9685C97.618 83.5229 98.6124 85.6265 98.6123 87.8194V107.166C98.6123 108.574 99.2524 109.923 100.392 110.919C101.531 111.914 103.077 112.474 104.688 112.474V112.474C106.217 112.471 107.689 111.967 108.813 111.062C109.937 110.156 110.63 108.915 110.756 107.584L112.158 97.8152" stroke="white" stroke-width="2.706" stroke-linecap="round" stroke-linejoin="round"/>
<path d="M111.05 67.9733C111.522 69.0952 111.476 70.3331 110.922 71.426C110.369 72.5189 109.351 73.3815 108.084 73.832C106.816 74.2826 105.398 74.2859 104.128 73.8412C102.858 73.3966 101.835 72.5388 101.275 71.4484" stroke="white" stroke-width="2.706" stroke-linecap="round" stroke-linejoin="round"/>
<path d="M110.879 79.5243C110.879 79.5243 104.995 84.3036 98.9291 84.9115" stroke="white" stroke-width="2.706" stroke-linecap="round" stroke-linejoin="round"/>
<path d="M85.4764 49.8108L84.8495 50.3584L76.5034 57.6473L68.1455 50.3584L67.5186 49.8108C61.8169 44.5635 71.3158 37.4129 76.5034 43.0695C81.691 37.4144 91.2573 44.5635 85.4764 49.8108Z" stroke="white" stroke-width="2.03" stroke-linecap="round" stroke-linejoin="round"/>
</svg>
