<svg width="132" height="141" viewBox="0 0 132 141" fill="none" xmlns="http://www.w3.org/2000/svg">
<path opacity="0.8" d="M71 139.41C110.212 139.41 142 108.202 142 69.7049C142 31.208 110.212 0 71 0C31.7878 0 0 31.208 0 69.7049C0 108.202 31.7878 139.41 71 139.41Z" fill="#29A9B3"/>
<path d="M78.5101 17.2523H48.3933C47.7277 17.2523 47.0894 16.9927 46.6187 16.5306C46.148 16.0686 45.8836 15.4418 45.8836 14.7884C45.8836 14.1349 46.148 13.5082 46.6187 13.0461C47.0894 12.584 47.7277 12.3244 48.3933 12.3244H55.9225C56.5875 12.3224 57.2247 12.0621 57.6949 11.6005C58.1651 11.1388 58.4302 10.5133 58.4323 9.86047C58.4323 8.5535 58.9611 7.30007 59.9024 6.37591C60.8438 5.45175 62.1205 4.93256 63.4517 4.93256C64.783 4.93256 66.0597 5.45175 67.001 6.37591C67.9424 7.30007 68.4712 8.5535 68.4712 9.86047C68.4733 10.5133 68.7384 11.1388 69.2086 11.6005C69.6788 12.0621 70.3159 12.3224 70.9809 12.3244H78.5101C79.1757 12.3244 79.8141 12.584 80.2848 13.0461C80.7554 13.5082 81.0198 14.1349 81.0198 14.7884C81.0198 15.4418 80.7554 16.0686 80.2848 16.5306C79.8141 16.9927 79.1757 17.2523 78.5101 17.2523ZM107.938 121.849C108.946 121.163 109.765 120.242 110.321 119.169L107.938 121.849ZM103.609 12.3244H85.5702C85.0573 10.8869 84.1027 9.64098 82.8383 8.75838C81.5738 7.87579 80.0616 7.39997 78.5101 7.39651H73.1779C72.616 5.28436 71.3565 3.41474 69.5967 2.08035C67.8369 0.745949 65.6761 0.0220947 63.4525 0.0220947C61.2289 0.0220947 59.0681 0.745949 57.3083 2.08035C55.5485 3.41474 54.2891 5.28436 53.7271 7.39651H48.3933C46.8421 7.40029 45.3303 7.87626 44.0661 8.75884C42.802 9.64141 41.8477 10.8872 41.3348 12.3244H23.296C22.3066 12.3221 21.3265 12.5118 20.412 12.8825C19.4975 13.2531 18.6666 13.7975 17.9669 14.4844C17.2673 15.1712 16.7128 15.987 16.3353 16.8848C15.9577 17.7827 15.7645 18.7449 15.7669 19.7163V115.812C15.7645 116.783 15.9577 117.746 16.3353 118.643C16.7128 119.541 17.2673 120.357 17.9669 121.044C18.6666 121.731 19.4975 122.275 20.412 122.646C21.3265 123.016 22.3066 123.206 23.296 123.204H80.0163C79.6703 121.594 79.4812 119.955 79.4515 118.31V118.279H23.296C22.6311 118.277 21.9939 118.017 21.5237 117.555C21.0535 117.093 20.7884 116.468 20.7863 115.815V19.7163C20.7884 19.0634 21.0535 18.4379 21.5237 17.9763C21.9939 17.5146 22.6311 17.2544 23.296 17.2523H41.3348C41.8477 18.6896 42.802 19.9353 44.0661 20.8179C45.3303 21.7005 46.8421 22.1764 48.3933 22.1802H78.5101C80.0613 22.1764 81.5732 21.7005 82.8373 20.8179C84.1015 19.9353 85.0557 18.6896 85.5686 17.2523H103.609C104.273 17.256 104.908 17.517 105.377 17.9785C105.846 18.4399 106.11 19.0645 106.112 19.7163V93.544H106.206C107.872 93.6659 109.521 93.9444 111.132 94.3757V19.7163C111.134 18.7455 110.941 17.7837 110.564 16.8863C110.187 15.9889 109.633 15.1734 108.934 14.4866C108.235 13.7998 107.405 13.2553 106.491 12.8843C105.577 12.5132 104.598 12.323 103.609 12.3244Z" fill="white"/>
<path d="M43.3739 64.0691H30.8252C30.1602 64.0712 29.5231 64.3314 29.0529 64.793C28.5827 65.2547 28.3176 65.8802 28.3155 66.533V78.8528C28.3176 79.5056 28.5827 80.1312 29.0529 80.5928C29.5231 81.0544 30.1602 81.3147 30.8252 81.3168H43.3739C44.0388 81.3147 44.676 81.0544 45.1462 80.5928C45.6164 80.1312 45.8815 79.5056 45.8836 78.8528V66.533C45.8815 65.8802 45.6164 65.2547 45.1462 64.793C44.676 64.3314 44.0388 64.0712 43.3739 64.0691ZM40.8562 76.3889H33.3349V68.997H40.8562V76.3889Z" fill="white"/>
<path d="M43.3739 88.7056H30.8252C30.1597 88.7076 29.5221 88.9683 29.0518 89.4306C28.5815 89.8929 28.3168 90.5193 28.3155 91.1727V103.492C28.3176 104.145 28.5827 104.771 29.0529 105.232C29.5231 105.694 30.1602 105.954 30.8252 105.956H43.3739C44.0388 105.954 44.676 105.694 45.1462 105.232C45.6164 104.771 45.8815 104.145 45.8836 103.492V91.1727C45.8823 90.5193 45.6176 89.8929 45.1473 89.4306C44.677 88.9683 44.0394 88.7076 43.3739 88.7056ZM40.8562 101.028H33.3349V93.6366H40.8562V101.028Z" fill="white"/>
<path d="M96.0798 64.0691H53.4128C52.7472 64.0691 52.1088 64.3287 51.6382 64.7908C51.1675 65.2528 50.9031 65.8796 50.9031 66.533C50.9031 67.1865 51.1675 67.8132 51.6382 68.2753C52.1088 68.7374 52.7472 68.997 53.4128 68.997H96.0798C96.7454 68.997 97.3838 68.7374 97.8545 68.2753C98.3251 67.8132 98.5895 67.1865 98.5895 66.533C98.5895 65.8796 98.3251 65.2528 97.8545 64.7908C97.3838 64.3287 96.7454 64.0691 96.0798 64.0691Z" fill="white"/>
<path d="M53.4128 78.8528H78.5101C79.1757 78.8528 79.8141 78.5932 80.2848 78.1312C80.7554 77.6691 81.0198 77.0424 81.0198 76.3889C81.0198 75.7354 80.7554 75.1087 80.2848 74.6466C79.8141 74.1845 79.1757 73.9249 78.5101 73.9249H53.4128C52.7472 73.9249 52.1088 74.1845 51.6382 74.6466C51.1675 75.1087 50.9031 75.7354 50.9031 76.3889C50.9031 77.0424 51.1675 77.6691 51.6382 78.1312C52.1088 78.5932 52.7472 78.8528 53.4128 78.8528Z" fill="white"/>
<path d="M96.0798 88.7056H53.4128C52.7472 88.7056 52.1088 88.9652 51.6382 89.4272C51.1675 89.8893 50.9031 90.516 50.9031 91.1695C50.9031 91.823 51.1675 92.4497 51.6382 92.9118C52.1088 93.3739 52.7472 93.6335 53.4128 93.6335H96.0798C96.7454 93.6335 97.3838 93.3739 97.8545 92.9118C98.3251 92.4497 98.5895 91.823 98.5895 91.1695C98.5895 90.516 98.3251 89.8893 97.8545 89.4272C97.3838 88.9652 96.7454 88.7056 96.0798 88.7056Z" fill="white"/>
<path d="M78.5101 98.5645H53.4128C52.7472 98.5645 52.1088 98.824 51.6382 99.2861C51.1675 99.7482 50.9031 100.375 50.9031 101.028C50.9031 101.682 51.1675 102.309 51.6382 102.771C52.1088 103.233 52.7472 103.492 53.4128 103.492H78.5101C79.1757 103.492 79.8141 103.233 80.2848 102.771C80.7554 102.309 81.0198 101.682 81.0198 101.028C81.0198 100.375 80.7554 99.7482 80.2848 99.2861C79.8141 98.824 79.1757 98.5645 78.5101 98.5645Z" fill="white"/>
<path d="M95.4241 118.276H92.4724C92.8053 117.916 93.2635 117.691 93.7568 117.645C94.2502 117.6 94.743 117.737 95.1385 118.03L95.4241 118.276Z" fill="white"/>
<path d="M111.14 95.9765C109.504 95.5049 107.821 95.2056 106.12 95.0837C105.556 95.0523 104.991 95.0226 104.426 95.0226C98.2224 95.0329 92.276 97.4567 87.8892 101.763C83.5024 106.069 81.0328 111.907 81.0214 117.997V118.274C81.0441 119.933 81.2441 121.585 81.6181 123.202C82.5504 127.136 84.5219 130.758 87.3341 133.706C90.1462 136.653 93.6997 138.821 97.6367 139.991C101.574 141.161 105.755 141.292 109.76 140.371C113.765 139.45 117.452 137.509 120.45 134.743C123.448 131.978 125.651 128.486 126.837 124.619C128.023 120.752 128.15 116.647 127.205 112.716C126.261 108.785 124.278 105.169 121.457 102.23C118.636 99.2906 115.076 97.1333 111.135 95.975L111.14 95.9765ZM104.426 136.355C100.39 136.353 96.4631 135.071 93.2296 132.7C89.9961 130.329 87.6292 126.996 86.4812 123.197C86.0074 121.595 85.7541 119.938 85.7282 118.27V117.997C85.7358 113.131 87.7082 108.466 91.2131 105.026C94.718 101.585 99.4694 99.6489 104.426 99.6419C104.992 99.642 105.558 99.6728 106.12 99.7343C110.773 100.141 115.101 102.246 118.249 105.633C121.397 109.021 123.136 113.444 123.124 118.03C123.115 122.893 121.141 127.554 117.636 130.99C114.13 134.426 109.379 136.355 104.426 136.355Z" fill="white"/>
<path d="M116.442 112.239L110.324 119.169L107.941 121.849L104.552 125.699C103.927 126.41 103.048 126.858 102.096 126.95C101.144 127.041 100.192 126.77 99.4384 126.192L95.4847 123.166L92.7245 121.072C92.5163 120.919 92.3417 120.727 92.2111 120.506C92.0805 120.286 91.9965 120.042 91.9644 119.789C91.9322 119.536 91.9524 119.279 92.0238 119.034C92.0952 118.789 92.2163 118.56 92.3798 118.362C92.4118 118.331 92.4421 118.269 92.474 118.238H95.4544L101.73 122.981L111.173 112.262L113.495 109.645C113.84 109.257 114.329 109.021 114.852 108.986C115.375 108.951 115.891 109.122 116.287 109.46C116.658 109.822 116.88 110.307 116.908 110.82C116.937 111.333 116.771 111.839 116.442 112.239Z" fill="white"/>
<path d="M79.3573 34.8087C78.4279 33.3236 77.3012 31.9666 76.0067 30.7736C75.3064 30.0627 74.4389 29.5315 73.4805 29.2267C72.5221 28.9219 71.5022 28.8528 70.5102 29.0255C70.008 29.1373 69.5299 29.3357 69.0982 29.6114C67.4241 28.5636 65.4662 28.0378 63.482 28.1029C61.46 28.038 59.4666 28.5848 57.7717 29.6693C57.3511 29.422 56.8966 29.2352 56.4219 29.1148C55.4303 28.9458 54.4117 29.0175 53.4548 29.3235C52.4979 29.6296 51.6317 30.1608 50.9318 30.8708C49.6374 32.0637 48.5106 33.4207 47.5812 34.9058C46.0751 37.4011 45.7927 39.5251 46.734 41.1887C47.1268 41.8947 47.6838 42.4998 48.3597 42.9546C49.0357 43.4094 49.8114 43.7012 50.6238 43.8061C50.4585 44.7214 50.3747 45.6491 50.3734 46.5786C50.3239 48.4432 50.8224 50.2824 51.8093 51.8762C52.7049 53.2169 53.9659 54.2839 55.4487 54.9558C57.9739 56.0115 60.7058 56.5057 63.4485 56.4031C66.1912 56.5057 68.9231 56.0115 71.4484 54.9558C72.9199 54.2667 74.1765 53.2034 75.0877 51.8762C76.0811 50.2851 76.5801 48.444 76.5237 46.5786C76.5222 45.6086 76.4384 44.6403 76.2732 43.6839C77.0876 43.585 77.8659 43.2957 78.5428 42.8402C79.2196 42.3848 79.7753 41.7765 80.163 41.0665C80.5396 40.4195 80.7346 39.686 80.7278 38.9409C80.6426 37.4703 80.1704 36.0466 79.3573 34.8087ZM74.2118 32.7457C75.308 33.7535 76.2582 34.904 77.0358 36.1652C77.7267 37.2742 78.416 38.814 77.8512 39.7993C77.6336 40.2079 77.3038 40.5487 76.8991 40.7829C76.4945 41.0171 76.0312 41.1354 75.5616 41.1244C75.402 40.6937 75.2425 40.2613 75.059 39.7993C74.8085 39.121 74.5261 38.413 74.2437 37.6063C73.6065 35.4367 72.5869 33.3935 71.2314 31.5694C71.7868 31.5305 72.3439 31.6162 72.8605 31.82C73.3772 32.0239 73.8398 32.3404 74.2134 32.7457H74.2118ZM52.6629 37.611C52.3805 38.4428 52.13 39.1194 51.8476 39.804C51.6593 40.2974 51.4711 40.7595 51.3147 41.2137C50.8491 41.2248 50.3898 41.1062 49.99 40.8716C49.5902 40.6371 49.2662 40.2963 49.0555 39.8885C48.4907 38.9033 49.1815 37.3635 49.8708 36.2545C50.6584 35.0002 51.6076 33.8509 52.6948 32.835C53.3901 32.1259 54.3302 31.6975 55.3306 31.6336H55.5811C54.2914 33.4614 53.3064 35.4791 52.6629 37.611ZM63.4549 46.6053C63.1309 46.5222 62.8373 46.3512 62.6077 46.1119C62.3465 45.9006 62.1688 45.6064 62.1051 45.2801C62.1051 45.1564 62.137 45.1235 62.1992 45.0953C62.6073 44.9825 63.0322 44.9407 63.4549 44.9715C63.8776 44.9407 64.3025 44.9825 64.7106 45.0953C64.8047 45.1266 64.8047 45.1266 64.8047 45.2801C64.7271 45.601 64.5518 45.8911 64.3021 46.1119C64.0812 46.3632 63.7825 46.5365 63.4517 46.6053H63.4549ZM73.6199 48.6996C73.4594 49.3184 73.2056 49.9103 72.8668 50.4555C72.236 51.3884 71.357 52.1338 70.3251 52.6109C68.5945 53.3579 66.7255 53.7461 64.835 53.7512V48.9455C65.3448 48.7025 65.8109 48.3798 66.2151 47.99C66.977 47.2786 67.4364 46.3104 67.5011 45.2801C67.5103 44.7212 67.3477 44.1726 67.0347 43.7057C66.7216 43.2388 66.2726 42.8753 65.746 42.6626C65.0154 42.3937 64.2354 42.2784 63.4565 42.3243C62.6777 42.2812 61.8983 42.3964 61.1669 42.6626C60.6404 42.8753 60.1914 43.2388 59.8783 43.7057C59.5653 44.1726 59.4027 44.7212 59.4119 45.2801C59.4724 46.3181 59.9457 47.2912 60.7298 47.99C61.1318 48.3824 61.5984 48.7055 62.1099 48.9455V53.7496C60.2198 53.741 58.3515 53.3529 56.6198 52.6093C55.5822 52.1409 54.701 51.3936 54.0781 50.4539C53.3545 49.287 52.9945 47.9377 53.0426 46.5724C53.0752 44.5544 53.5235 42.5637 54.3605 40.7203C54.6429 40.0123 54.8934 39.3105 55.2077 38.4412C55.7827 36.4343 56.7411 34.5531 58.0318 32.8977C58.7113 32.1571 59.5515 31.5756 60.4903 31.1961C61.4292 30.8165 62.4428 30.6486 63.4565 30.7047C64.4699 30.6517 65.4825 30.821 66.4209 31.2003C67.3592 31.5796 68.1997 32.1595 68.8812 32.8977C70.1839 34.5457 71.1435 36.4293 71.7053 38.4412C71.9877 39.3043 72.2701 40.0421 72.5525 40.7516C73.4041 42.5903 73.8531 44.584 73.8704 46.6037C73.869 47.3096 73.7839 48.013 73.6167 48.6996H73.6199Z" fill="white"/>
</svg>
