<svg width="60" height="51" viewBox="0 0 60 51" fill="none" xmlns="http://www.w3.org/2000/svg">
<path d="M39.375 25.5C39.375 27.6134 38.3873 29.6403 36.6291 31.1348C34.871 32.6292 32.4864 33.4688 30 33.4688C27.5136 33.4688 25.129 32.6292 23.3709 31.1348C21.6127 29.6403 20.625 27.6134 20.625 25.5C20.625 25.0458 20.6812 24.6022 20.7781 24.1719H17.5V34.7889C17.5 35.5273 18.2031 36.125 19.0719 36.125H40.9312C41.3476 36.1243 41.7466 35.9832 42.0407 35.7327C42.3348 35.4822 42.5 35.1428 42.5 34.7889V24.1719H39.2219C39.3187 24.6022 39.375 25.0458 39.375 25.5ZM30 30.8125C30.821 30.8123 31.6339 30.6747 32.3923 30.4075C33.1506 30.1403 33.8397 29.7487 34.4201 29.2552C35.0004 28.7616 35.4607 28.1757 35.7747 27.531C36.0887 26.8862 36.2502 26.1952 36.25 25.4973C36.2498 24.7995 36.0879 24.1086 35.7735 23.4639C35.4592 22.8193 34.9985 22.2336 34.4179 21.7403C33.8372 21.247 33.1479 20.8557 32.3894 20.5888C31.6308 20.3219 30.8178 20.1847 29.9969 20.1848C28.3389 20.1852 26.7489 20.7454 25.5768 21.7422C24.4047 22.739 23.7465 24.0907 23.7469 25.5C23.7473 26.9093 24.4063 28.2608 25.579 29.2571C26.7517 30.2533 28.342 30.8129 30 30.8125ZM37.5 19.9219H41.2469C41.4958 19.9219 41.7346 19.838 41.9109 19.6886C42.0872 19.5393 42.1867 19.3366 42.1875 19.125V15.9402C42.1875 15.7281 42.0884 15.5247 41.912 15.3748C41.7356 15.2249 41.4963 15.1406 41.2469 15.1406H37.5C37.2505 15.1406 37.0113 15.2249 36.8349 15.3748C36.6585 15.5247 36.5594 15.7281 36.5594 15.9402V19.125C36.5625 19.5633 36.9844 19.9219 37.5 19.9219ZM30 0C22.0435 0 14.4129 2.6866 8.7868 7.46878C3.1607 12.251 0 18.737 0 25.5C0 32.263 3.1607 38.749 8.7868 43.5312C14.4129 48.3134 22.0435 51 30 51C33.9397 51 37.8407 50.3404 41.4805 49.0589C45.1203 47.7774 48.4274 45.8991 51.2132 43.5312C53.999 41.1633 56.2087 38.3522 57.7164 35.2584C59.224 32.1646 60 28.8487 60 25.5C60 22.1513 59.224 18.8354 57.7164 15.7416C56.2087 12.6478 53.999 9.83667 51.2132 7.46878C48.4274 5.10088 45.1203 3.22257 41.4805 1.94107C37.8407 0.659577 33.9397 0 30 0ZM45.625 35.8302C45.625 37.4531 44.0625 38.7812 42.1531 38.7812H17.8469C15.9375 38.7812 14.375 37.4531 14.375 35.8302V15.1698C14.375 13.5469 15.9375 12.2188 17.8469 12.2188H42.1531C44.0625 12.2188 45.625 13.5469 45.625 15.1698V35.8302Z" fill="#CA5928"/>
</svg>
