<svg width="60" height="65" viewBox="0 0 60 65" fill="none" xmlns="http://www.w3.org/2000/svg">
<path d="M27.2408 50.375C27.8207 51.0225 28.8401 51.4541 30 51.4541C31.1599 51.4541 32.1793 51.0225 32.7768 50.375L52.1441 28.7676C54.7452 25.8604 56.2566 22.6611 56.2566 18.9541C56.239 8.23926 44.587 0 30 0C15.413 0 3.76098 8.23926 3.76098 18.9541C3.76098 22.6611 5.27241 25.8604 7.87346 28.7676L27.2408 50.375ZM30 8.125C38.2777 8.125 44.9912 12.9746 44.9912 18.9541C44.9912 24.9336 38.2777 29.7832 30 29.7832C21.7223 29.7832 15.0088 24.9336 15.0088 18.9541C15.0088 12.9746 21.7223 8.125 30 8.125ZM49.2267 41.0693L30 59.5791L10.7733 41.0693C4.20035 43.5576 0 47.2773 0 51.4541C0 58.9316 13.4271 65 30 65C46.5729 65 60 58.9316 60 51.4541C60 47.2773 55.7996 43.5576 49.2267 41.0693Z" fill="#CA5928"/>
</svg>
