<svg width="66" height="60" viewBox="0 0 66 60" fill="none" xmlns="http://www.w3.org/2000/svg">
<path d="M66 29.97C66 13.425 51.216 0 33 0C14.784 0 0 13.425 0 29.97C0 39.0825 4.554 47.295 11.682 52.8075C11.748 52.8675 11.814 52.8675 11.814 52.9275C12.408 53.3475 13.002 53.7675 13.662 54.1875C13.992 54.3675 14.256 54.6037 14.586 54.8438C20.0395 58.2051 26.4772 60.0013 33.066 60C39.6548 60.0013 46.0925 58.2051 51.546 54.8438C51.876 54.6637 52.14 54.4275 52.47 54.2438C53.064 53.8275 53.724 53.4075 54.318 52.9875C54.384 52.9275 54.45 52.9275 54.45 52.8675C61.446 47.2912 66 39.0825 66 29.97ZM33 56.2238C26.796 56.2238 21.12 54.4237 16.434 51.4275C16.5 50.9475 16.632 50.4713 16.764 49.9913C17.1573 48.6904 17.7341 47.4413 18.48 46.275C19.206 45.135 20.064 44.115 21.12 43.215C22.11 42.315 23.298 41.4788 24.486 40.8188C25.74 40.1588 27.06 39.6787 28.512 39.3187C29.9753 38.9602 31.4845 38.7799 33 38.7825C37.4989 38.7535 41.8326 40.3224 45.078 43.155C46.596 44.535 47.784 46.155 48.642 48.0113C49.104 49.0913 49.434 50.2313 49.632 51.4275C44.7611 54.5406 38.9542 56.2152 33 56.2238ZM22.902 28.4737C22.3205 27.2633 22.028 25.9545 22.044 24.6337C22.044 23.3175 22.308 21.9975 22.902 20.7975C23.496 19.5975 24.288 18.5212 25.278 17.6213C26.268 16.7212 27.456 16.005 28.776 15.465C30.096 14.925 31.548 14.685 33 14.685C34.518 14.685 35.904 14.925 37.224 15.465C38.544 16.005 39.732 16.725 40.722 17.6213C41.712 18.5212 42.504 19.6012 43.098 20.7975C43.692 21.9975 43.956 23.3175 43.956 24.6337C43.956 26.0138 43.692 27.2738 43.098 28.47C42.5247 29.6522 41.7196 30.7298 40.722 31.65C39.7094 32.5556 38.5242 33.2862 37.224 33.8063C34.4967 34.8252 31.4373 34.8252 28.71 33.8063C27.4098 33.2862 26.2246 32.5556 25.212 31.65C24.213 30.7432 23.4271 29.6613 22.902 28.47V28.4737ZM53.526 48.3713C53.526 48.2513 53.46 48.1912 53.46 48.0713C52.8109 46.1941 51.8541 44.4166 50.622 42.7988C49.3887 41.1689 47.8731 39.7315 46.134 38.5425C44.8059 37.6342 43.3662 36.8691 41.844 36.2625C42.5365 35.8472 43.1782 35.3657 43.758 34.8262C44.742 33.9431 45.6061 32.9561 46.332 31.8863C47.7937 29.703 48.5486 27.1893 48.51 24.6337C48.5304 22.7419 48.1262 20.8662 47.322 19.1213C46.528 17.4399 45.3852 15.9133 43.956 14.625C42.5289 13.3501 40.8494 12.3322 39.006 11.625C37.0834 10.8952 35.0174 10.529 32.934 10.5487C30.8503 10.5302 28.7843 10.8977 26.862 11.6287C25.0027 12.3345 23.3191 13.3739 21.912 14.685C20.5097 15.981 19.3899 17.5066 18.612 19.1812C17.8078 20.9262 17.4036 22.8019 17.424 24.6938C17.424 26.0138 17.622 27.2738 18.018 28.47C18.414 29.73 18.942 30.87 19.668 31.9463C20.328 33.0262 21.252 33.9863 22.242 34.8863C22.836 35.4263 23.496 35.9025 24.222 36.3225C22.6951 36.9452 21.255 37.7307 19.932 38.6625C18.216 39.8625 16.698 41.2987 15.444 42.8587C14.1993 44.4699 13.2416 46.2492 12.606 48.1312C12.54 48.2513 12.54 48.3713 12.54 48.4313C7.326 43.635 4.092 37.1625 4.092 29.97C4.092 15.525 17.094 3.71625 33 3.71625C48.906 3.71625 61.908 15.525 61.908 29.97C61.8994 36.8698 58.8857 43.4858 53.526 48.3713Z" fill="#CA5928"/>
</svg>
