<svg width="60" height="51" viewBox="0 0 60 51" fill="none" xmlns="http://www.w3.org/2000/svg">
<path d="M30 0C13.4312 0 0 11.4166 0 25.5C0 39.5834 13.4312 51 30 51C46.5687 51 60 39.5834 60 25.5C60 11.4166 46.5687 0 30 0ZM42.2031 20.8888C42.2156 21.1066 42.2187 21.3244 42.2187 21.5369C42.2187 28.1775 36.2781 35.8302 25.4094 35.8302C22.1978 35.8347 19.053 35.0507 16.3531 33.5723C16.8125 33.6202 17.2844 33.6388 17.7625 33.6388C20.5312 33.6388 23.0781 32.8392 25.1 31.4898C23.8679 31.4693 22.674 31.1225 21.6847 30.4978C20.6955 29.8731 19.9602 29.0016 19.5812 28.0048C20.4661 28.1479 21.3777 28.1179 22.2469 27.9172C20.9095 27.6873 19.7069 27.0714 18.8428 26.1738C17.9788 25.2762 17.5066 24.1523 17.5062 22.9925V22.9314C18.3031 23.3059 19.2156 23.5344 20.1844 23.5609C18.9306 22.8515 18.0431 21.7618 17.7033 20.5146C17.3634 19.2674 17.597 17.9569 18.3562 16.8512C19.8405 18.4025 21.6914 19.6715 23.7893 20.5761C25.8871 21.4808 28.1851 22.0008 30.5344 22.1027C30.2357 21.025 30.3642 19.8937 30.9 18.8846C31.4358 17.8755 32.3488 17.0451 33.4971 16.5226C34.6454 16 35.9646 15.8146 37.2497 15.9951C38.5347 16.1756 39.7136 16.7119 40.6031 17.5206C41.9255 17.2982 43.1937 16.8859 44.3531 16.3014C43.9124 17.4652 42.9896 18.4534 41.7562 19.0825C42.9276 18.9626 44.0715 18.6949 45.15 18.2883C44.3578 19.2974 43.3598 20.178 42.2031 20.8888Z" fill="#CA5928"/>
</svg>
