<svg width="60" height="51" viewBox="0 0 60 51" fill="none" xmlns="http://www.w3.org/2000/svg">
<g clip-path="url(#clip0_46_26)">
<path d="M51.2343 7.41428C48.4711 5.0545 45.1806 3.18365 41.5544 1.91076C37.9282 0.637867 34.0388 -0.0116161 30.113 0.000157241C13.6627 0.000157241 0.256153 11.3413 0.241085 25.2643C0.241085 29.7236 1.61979 34.0618 4.22275 37.9027L0 51.0002L15.8363 47.4875C20.2172 49.5049 25.1253 50.5624 30.113 50.5635H30.1281C46.5821 50.5635 59.9849 39.2223 60 25.2866C60.0038 21.9654 59.2308 18.6763 57.7258 15.609C56.2207 12.5416 54.0132 9.75656 51.2305 7.41428H51.2343ZM30.113 46.2858C25.6642 46.2871 21.2972 45.2741 17.4711 43.3533L16.567 42.8943L7.17227 44.979L9.68106 37.2238L9.09342 36.4237C6.6065 33.0779 5.29124 29.2041 5.3001 25.2515C5.3001 13.6937 16.439 4.26503 30.1281 4.26503C33.3893 4.26008 36.6194 4.80141 39.6322 5.8578C42.645 6.91419 45.3808 8.46475 47.6821 10.4201C49.9913 12.3678 51.822 14.6831 53.0685 17.2325C54.315 19.7819 54.9527 22.5149 54.9447 25.2738C54.9297 36.8732 43.7908 46.2858 30.113 46.2858ZM43.7305 30.5587C42.9884 30.2432 39.3232 28.7163 38.6338 28.4996C37.9483 28.2924 37.4473 28.184 36.9576 28.8152C36.4565 29.4431 35.0251 30.8743 34.5957 31.2855C34.1662 31.7094 33.7217 31.7572 32.9759 31.4448C32.2338 31.1261 29.8267 30.4631 26.9789 28.3052C24.7564 26.6317 23.2685 24.5598 22.824 23.9319C22.3945 23.3008 22.7825 22.9629 23.1554 22.6473C23.4832 22.3668 23.8975 21.9078 24.2705 21.5445C24.6472 21.1811 24.7715 20.9133 25.0163 20.4926C25.2612 20.0655 25.1444 19.7021 24.9598 19.3865C24.7715 19.071 23.2835 15.9568 22.6544 14.7009C22.0517 13.461 21.4377 13.6331 20.9781 13.6172C20.5487 13.5948 20.0477 13.5948 19.5467 13.5948C19.1684 13.6028 18.7961 13.6768 18.4531 13.8123C18.1102 13.9478 17.8041 14.1418 17.554 14.3822C16.8684 15.0133 14.951 16.5401 14.951 19.6543C14.951 22.7685 17.6256 25.7615 18.0023 26.1855C18.3714 26.6094 23.2534 32.9812 30.7458 35.7225C32.5163 36.3759 33.9101 36.7616 34.9987 37.0548C36.788 37.5393 38.4041 37.466 39.6924 37.3098C41.1238 37.125 44.1035 35.7798 44.7325 34.304C45.3503 32.825 45.3503 31.5628 45.162 31.2982C44.9774 31.0305 44.4764 30.8743 43.7305 30.5587Z" fill="#CA5928"/>
</g>
<defs>
<clipPath id="clip0_46_26">
<rect width="60" height="51" fill="white"/>
</clipPath>
</defs>
</svg>
